# xmcd
#
# Track frame offsets:
#	150
#	15167
#	28546
#	45522
#	59305
#	71466
#	86391
#	101910
#	119155
#	132683
#	155808
#	174025
#	190648
#	206235
#
# Disc length: 2878 seconds
#
# Revision: 0
# Processed by: cddbd v1.5.2PL0 Copyright (c) Steve Scherf et al.
# Submitted via: EasyCDDAExtractor 16.0.6.1
#
DISCID=bc0b3c0e
DTITLE=Rosanne Cash - The River and the Thread
DYEAR=2014
DGENRE=Country
TTITLE0=A Feather’s Not A Bird
TTITLE1=The Sunken Lands
TTITLE2=Etta’s Tune
TTITLE3=Modern Blue
TTITLE4=Tell Heaven
TTITLE5=The Long Way Home
TTITLE6=World Of Strange Design
TTITLE7=Night School
TTITLE8=50,000 Watts
TTITLE9=When The Master Calls The Roll
TTITLE10=Money Road
TTITLE11=Two Girls
TTITLE12=Biloxi
TTITLE13=Your Southern Heart
EXTD=
EXTT0=
EXTT1=
EXTT2=
EXTT3=
EXTT4=
EXTT5=
EXTT6=
EXTT7=
EXTT8=
EXTT9=
EXTT10=
EXTT11=
EXTT12=
EXTT13=
PLAYORDER=
